<svg width="512" height="512" viewBox="0 0 512 512" fill="none" xmlns="http://www.w3.org/2000/svg">
  <defs>
    <linearGradient id="bg" x1="96" y1="76" x2="432" y2="436" gradientUnits="userSpaceOnUse">
      <stop stop-color="#7C9CFF"/>
      <stop offset="1" stop-color="#45D0B8"/>
    </linearGradient>
    <linearGradient id="line" x1="118" y1="122" x2="395" y2="391" gradientUnits="userSpaceOnUse">
      <stop stop-color="#DCE7FF"/>
      <stop offset="1" stop-color="#C8FFF5"/>
    </linearGradient>
    <filter id="glow" x="40" y="40" width="432" height="432" filterUnits="userSpaceOnUse" color-interpolation-filters="sRGB">
      <feFlood flood-opacity="0" result="BackgroundImageFix"/>
      <feGaussianBlur in="SourceGraphic" stdDeviation="18" result="blur"/>
      <feColorMatrix in="blur" type="matrix" values="1 0 0 0 0  0 1 0 0 0  0 0 1 0 0  0 0 0 0.18 0" result="softGlow"/>
      <feBlend mode="screen" in="softGlow" in2="SourceGraphic" result="shape"/>
    </filter>
  </defs>

  <rect x="28" y="28" width="456" height="456" rx="128" fill="#09111F"/>
  <rect x="28" y="28" width="456" height="456" rx="128" fill="url(#bg)" fill-opacity="0.08"/>
  <path d="M160 116C115.817 116 80 151.817 80 196V316C80 360.183 115.817 396 160 396H268" stroke="url(#bg)" stroke-width="30" stroke-linecap="round"/>

  <g filter="url(#glow)">
    <path d="M176 170L256 250L336 170" stroke="url(#line)" stroke-width="24" stroke-linecap="round" stroke-linejoin="round"/>
    <path d="M256 250V344" stroke="url(#line)" stroke-width="24" stroke-linecap="round"/>
    <path d="M176 344H336" stroke="url(#line)" stroke-width="24" stroke-linecap="round"/>
  </g>

  <circle cx="176" cy="170" r="26" fill="#7C9CFF"/>
  <circle cx="256" cy="250" r="26" fill="#9AB4FF"/>
  <circle cx="336" cy="170" r="26" fill="#45D0B8"/>
  <circle cx="176" cy="344" r="26" fill="#7C9CFF" fill-opacity="0.92"/>
  <circle cx="336" cy="344" r="26" fill="#45D0B8" fill-opacity="0.92"/>

  <path d="M358 122C396.66 122 428 153.34 428 192C428 219.663 411.952 243.577 388.651 254.89" stroke="#EAF1FF" stroke-width="18" stroke-linecap="round" opacity="0.95"/>
  <path d="M372 110L360 148L398 136" stroke="#EAF1FF" stroke-width="16" stroke-linecap="round" stroke-linejoin="round" opacity="0.95"/>
</svg>
